<?xml version="1.0" standalone="no"?>
<!DOCTYPE svg PUBLIC "-//W3C//DTD SVG 20010904//EN"
 "http://www.w3.org/TR/2001/REC-SVG-20010904/DTD/svg10.dtd">
<svg version="1.0" xmlns="http://www.w3.org/2000/svg"
 width="512.000000pt" height="512.000000pt" viewBox="0 0 512.000000 512.000000"
 preserveAspectRatio="xMidYMid meet">

<g transform="translate(0.000000,512.000000) scale(0.100000,-0.100000)"
fill="#000000" stroke="none">
<path d="M674 5099 c-70 -27 -128 -79 -161 -147 l-28 -57 0 -2115 0 -2115 28
-57 c34 -69 101 -131 164 -152 30 -10 82 -16 144 -16 l97 0 4 -112 c3 -93 8
-121 27 -158 31 -61 76 -107 136 -138 l50 -27 1640 0 1640 0 57 28 c64 32 111
80 142 146 19 42 21 68 24 269 4 241 -1 271 -44 291 -35 16 -48 14 -78 -10
l-26 -20 0 -218 c0 -205 -1 -219 -22 -261 -15 -27 -36 -50 -58 -62 -34 -17
-101 -18 -1642 -16 l-1607 3 -28 21 c-15 11 -36 36 -45 55 -17 32 -18 153 -18
2109 0 1956 1 2077 18 2110 9 19 32 45 51 57 l34 23 1604 0 c1767 0 1637 5
1685 -62 l23 -33 3 -1719 2 -1720 22 -23 c26 -28 67 -30 99 -4 l24 19 0 1734
0 1733 -28 57 c-34 69 -101 131 -164 152 -30 10 -82 16 -144 16 l-97 0 -4 113
c-3 97 -7 119 -30 162 -31 59 -76 104 -138 136 l-45 24 -1630 2 c-1597 2
-1631 2 -1681 -18z m3295 -147 c62 -31 76 -61 79 -173 l4 -99 -1444 0 c-1648
0 -1501 8 -1600 -90 -97 -97 -88 103 -88 -2082 l0 -1918 -90 0 c-103 0 -136
12 -172 62 l-23 33 -3 2080 -2 2080 22 44 c14 28 36 51 58 63 33 17 105 18
1630 18 1499 0 1597 -1 1629 -18z"/>
<path d="M1483 4179 c-83 -41 -124 -113 -126 -222 -2 -64 0 -70 26 -93 34 -29
56 -30 91 -3 20 15 26 29 26 57 0 55 18 110 40 122 12 6 176 10 444 10 413 0
427 -1 446 -20 19 -19 20 -33 20 -416 0 -442 7 -405 -67 -343 -17 15 -54 39
-81 55 l-49 28 21 45 c33 72 30 188 -7 263 -94 192 -341 242 -497 101 -28 -25
-63 -69 -78 -97 -23 -44 -27 -63 -27 -141 0 -72 4 -98 21 -131 l21 -42 -31
-15 c-18 -8 -62 -38 -100 -66 -37 -28 -69 -51 -72 -51 -2 0 -4 85 -4 189 l0
190 -26 20 c-35 27 -57 26 -91 -3 l-28 -24 -3 -277 c-2 -158 1 -306 7 -343 14
-87 49 -138 121 -175 l55 -28 456 3 456 3 48 30 c36 22 57 45 77 84 l28 53 0
542 0 542 -27 55 c-19 35 -43 64 -71 84 l-44 30 -466 3 c-458 2 -468 2 -509
-19z m550 -493 c48 -18 74 -41 98 -88 64 -125 -55 -275 -191 -238 -166 45
-175 268 -13 325 47 17 59 17 106 1z m-123 -473 c59 -15 116 -11 183 13 40 14
43 14 104 -16 79 -39 167 -120 212 -194 33 -55 33 -57 16 -76 -18 -19 -32 -20
-444 -20 -490 1 -478 -1 -445 72 31 70 136 172 217 213 41 21 77 33 86 29 9
-4 41 -13 71 -21z"/>
<path d="M3035 3735 c-14 -13 -25 -36 -25 -50 0 -14 11 -37 25 -50 l24 -25
504 0 c478 0 506 1 528 19 32 26 32 86 0 112 -22 18 -50 19 -528 19 l-504 0
-24 -25z"/>
<path d="M3031 3334 c-26 -33 -27 -65 -2 -95 l19 -24 498 -3 c345 -2 507 1
525 8 25 11 49 46 49 74 0 7 -9 25 -21 40 l-20 26 -514 0 -514 0 -20 -26z"/>
<path d="M1381 2344 c-12 -15 -21 -33 -21 -40 0 -26 23 -62 47 -73 17 -8 397
-11 1339 -11 l1316 0 29 29 c34 35 36 59 8 95 l-20 26 -1339 0 -1339 0 -20
-26z"/>
<path d="M1385 1865 c-14 -13 -25 -36 -25 -50 0 -14 11 -37 25 -50 l24 -25
1329 0 c1284 0 1331 1 1353 19 32 26 32 86 0 112 -22 18 -69 19 -1353 19
l-1329 0 -24 -25z"/>
<path d="M1405 1398 c-49 -26 -58 -69 -24 -112 l20 -26 1339 0 1339 0 20 26
c12 15 21 33 21 40 0 26 -23 62 -47 73 -34 16 -2639 15 -2668 -1z"/>
<path d="M1381 894 c-24 -31 -26 -43 -9 -79 7 -16 24 -29 47 -36 24 -7 463 -9
1344 -7 l1309 3 24 28 c29 34 30 56 3 91 l-20 26 -1339 0 -1339 0 -20 -26z"/>
</g>
</svg>
